<svg xmlns="http://www.w3.org/2000/svg" viewBox="0 0 100 100">
  <ellipse cx="52" cy="80" rx="36" ry="5" fill="#000" opacity="0.13"/>
  <g stroke="#8a5318" stroke-width="2.6" stroke-linecap="round" fill="none"><path d="M25 52 L20 62 M31 52 L36 62"/> <path d="M37 50 L32 60 M43 50 L48 60"/> <path d="M49 52 L44 62 M55 52 L60 62"/> <path d="M61 56 L56 66 M67 56 L72 66"/> <path d="M72 60 L67 70 M78 60 L83 70"/> <path d="M81 64 L76 74 M87 64 L92 74"/></g>
  <g fill="#d99a4e" stroke="#8a5318" stroke-width="3"><circle cx="28" cy="48" r="7.5"/> <circle cx="40" cy="46" r="7.5"/> <circle cx="52" cy="48" r="7.5"/> <circle cx="64" cy="52" r="7"/> <circle cx="75" cy="56" r="6.2"/> <circle cx="84" cy="60" r="5.2"/></g>
  <g fill="#d99a4e"><circle cx="28" cy="48" r="7.5"/> <circle cx="40" cy="46" r="7.5"/> <circle cx="52" cy="48" r="7.5"/> <circle cx="64" cy="52" r="7"/> <circle cx="75" cy="56" r="6.2"/> <circle cx="84" cy="60" r="5.2"/></g>
  <circle cx="28" cy="45.5" r="2.1" fill="#f0bd7e"/><circle cx="52" cy="45.5" r="2.1" fill="#f0bd7e"/><circle cx="75" cy="53.5" r="2.1" fill="#f0bd7e"/>
  <circle cx="16" cy="50" r="9.5" fill="#d99a4e" stroke="#8a5318" stroke-width="3"/>
  <circle cx="13" cy="48" r="2.2" fill="#26201c"/>
  <path d="M13 42 C10 35 6 31 3 29 M19 41 C19 34 17 28 14 24"
        fill="none" stroke="#8a5318" stroke-width="2.4" stroke-linecap="round"/>
  <path d="M10 55 C12 57 15 57 17 55" fill="none" stroke="#8a5318"
        stroke-width="1.6" stroke-linecap="round"/>
</svg>
