<svg xmlns="http://www.w3.org/2000/svg" viewBox="0 0 100 100">
  <!-- Open-book emblem only: the dock coin face comes from the button's
       coin stylebox, same approach as the gust icon. -->
  <g transform="translate(50 52) scale(1.7)" stroke-linejoin="round" stroke-linecap="round">
    <path d="M -24 -9 C -16 -14 -6 -14 -1 -10 L -1 11 C -6 7 -16 7 -24 12 Z" fill="#8a5a2b" stroke="#5c3a17" stroke-width="2"/>
    <path d="M 24 -9 C 16 -14 6 -14 1 -10 L 1 11 C 6 7 16 7 24 12 Z" fill="#8a5a2b" stroke="#5c3a17" stroke-width="2"/>
    <path d="M -21 -7 C -15 -11 -7 -11 -3 -8 L -3 8 C -7 5 -15 5 -21 9 Z" fill="#f7f0e1"/>
    <path d="M 21 -7 C 15 -11 7 -11 3 -8 L 3 8 C 7 5 15 5 21 9 Z" fill="#f7f0e1"/>
    <path d="M -17 -6 L -6 -6 M -17 -1 L -6 -1 M -17 4 L -9 4 M 17 -6 L 6 -6 M 17 -1 L 6 -1 M 17 4 L 9 4" stroke="#c9b98f" stroke-width="1.6" stroke-linecap="round" fill="none"/>
    <path d="M 0 -10 L 0 11" stroke="#5c3a17" stroke-width="2.4" stroke-linecap="round"/>
  </g>
</svg>
